# xmcd
#
# Track frame offsets:
#	150
#	15218
#	29973
#	40048
#	55245
#	69858
#	87528
#	102383
#	114658
#	136020
#	146880
#
# Disc length: 2144 seconds
#
# Revision: 65530
# Processed by: cddbd v1.5.2PL0 Copyright (c) Steve Scherf et al.
# Submitted via: EZCDAudioConverter 3.1.5.1
#
DISCID=95085e0b
DTITLE=Μελίνα Μερκούρη - Μελίνα
DYEAR=1989
DGENRE=entexno
TTITLE0=Αγάπη Που 'γινες Δίκοπο Μαχαίρι
TTITLE1=Ο Μήνας Έχει Δεκατρείς
TTITLE2=	Η Προδοσία
TTITLE3=	Τα Παιδιά Του Πειραιά
TTITLE4=Χάρτινο Το Φεγγαράκι
TTITLE5=Θα Σημάνουν Οι Καμπάνες
TTITLE6=Το Μέτωπο
TTITLE7=Ο Μακ Με Το Μαχαίρι
TTITLE8=Το Τραγούδι Της Μπάρμπαρα
TTITLE9=Τ' Άλογο Του Ομέρ Βρυώνη
TTITLE10=Η Προσευχή Της Παρθένου
EXTD=
EXTT0=
EXTT1=
EXTT2=
EXTT3=
EXTT4=
EXTT5=
EXTT6=
EXTT7=
EXTT8=
EXTT9=
EXTT10=
PLAYORDER=
